<svg width="424" height="261" viewBox="0 0 424 261" fill="none" xmlns="http://www.w3.org/2000/svg">
<path d="M243.257 175.497L259.918 167.938V257.577H238.7C237.205 257.577 234.143 256.079 234.143 254.511V190.687C234.214 184.554 238.7 178.493 243.257 175.497Z" fill="#FAD69F"/>
<path d="M259.989 257.506V167.867L243.328 175.426C240.266 178.493 237.276 181.488 235.781 186.052L244.894 196.677C246.39 198.175 246.39 201.241 246.39 204.236V257.363H259.989V257.506V257.506Z" fill="#DCB57F"/>
<path d="M332.755 175.497L316.094 167.938V257.577H337.312C338.807 257.577 341.869 256.079 341.869 254.511V190.687C341.869 184.554 337.312 178.493 332.755 175.497Z" fill="#FAD69F"/>
<path d="M316.094 257.506V167.867L332.755 175.426C335.817 178.493 338.807 181.488 340.302 186.052L331.189 196.677C329.694 198.175 328.127 201.241 328.127 204.236V257.363H316.094V257.506Z" fill="#DCB57F"/>
<path d="M335.817 169.365L303.99 155.673H272.164L240.338 169.365C237.276 170.862 237.276 173.929 238.842 176.924L254.008 195.18C254.008 196.677 255.503 198.246 255.503 199.743V257.434H320.722V199.743C320.722 198.246 320.722 196.677 322.218 195.18L337.383 176.924C338.807 173.929 338.807 170.934 335.817 169.365Z" fill="#86B32D"/>
<path d="M303.919 155.744H272.093L262.979 158.811V160.308C262.979 174 275.083 184.625 287.258 184.625C300.929 184.625 313.033 174 313.033 160.308V158.811L303.919 155.744Z" fill="#FCFCFC"/>
<path d="M187.151 63.1106L211.43 84.3614C212.926 85.8589 214.492 84.3614 214.492 82.8638C217.554 75.3048 226.596 52.4852 246.318 44.9261L259.989 28.2392C259.989 28.2392 214.492 8.48597 187.222 60.1155C185.727 60.1155 185.727 61.613 185.727 61.613L187.151 63.1106Z" fill="#F29F36"/>
<path d="M194.77 69.1722L211.43 84.3615C212.926 85.8591 214.492 84.3615 214.492 82.864C217.554 75.305 226.596 52.4853 246.318 44.9263L249.38 41.8599C235.71 40.291 212.926 41.7886 194.77 69.1722Z" fill="#E08B1B"/>
<path d="M259.989 28.168C259.989 28.168 249.38 25.1016 237.276 25.1016C235.781 29.6655 232.719 38.7934 234.214 52.4139C237.276 49.3475 241.762 46.3524 246.318 44.8548L259.989 28.168Z" fill="#FCC816"/>
<path d="M234.214 41.7884C234.214 44.8548 234.214 49.3475 234.214 52.4138C237.276 49.3475 241.762 46.3524 246.318 44.8548L249.38 41.7884C244.823 40.2909 240.266 40.2909 234.214 41.7884Z" fill="#E6B512"/>
<path d="M388.861 63.1106L364.582 84.3614C363.086 85.8589 361.52 84.3614 360.025 82.8638C358.53 75.3048 349.416 52.4852 328.198 44.9261L316.094 28.2392C316.094 28.2392 360.096 8.48597 388.861 60.1155C390.356 61.5417 390.356 61.5417 388.861 63.1106Z" fill="#F29F36"/>
<path d="M381.314 69.1722L364.653 84.3615C363.158 85.8591 361.591 84.3615 360.096 82.864C358.601 75.305 349.487 52.4853 328.27 44.9263L326.774 41.8599C340.302 40.291 363.086 41.7886 381.314 69.1722Z" fill="#E08B1B"/>
<path d="M316.094 28.168C316.094 28.168 326.703 25.1016 338.807 25.1016C340.303 29.6655 343.364 38.7934 341.869 52.4139C338.807 49.3475 334.322 46.3524 328.198 44.8548L316.094 28.168Z" fill="#FCC816"/>
<path d="M341.869 41.7884C341.869 44.8548 341.869 49.3475 341.869 52.4138C338.807 49.3475 334.322 46.3524 328.198 44.8548L326.703 41.7884C331.26 40.2909 335.817 40.2909 341.869 41.7884Z" fill="#E6B512"/>
<path d="M287.258 176.995C278.145 176.995 272.093 169.436 272.093 160.308V131.427H303.919V160.308C303.919 169.365 296.372 176.995 287.258 176.995Z" fill="#FAD69F"/>
<path d="M272.093 149.683C276.65 151.18 282.702 151.18 287.258 151.18C293.31 151.18 299.362 151.18 303.919 149.683V131.427H272.093V149.683Z" fill="#DCB57F"/>
<path d="M337.312 82.7926H332.755V69.1721H243.257V82.8639H238.7C234.143 82.8639 231.153 85.9303 231.153 90.4229C231.153 94.9869 234.214 97.982 238.7 97.982H243.257C243.257 123.797 262.979 143.55 287.258 143.55C313.033 143.55 332.755 123.797 332.755 97.982H337.312C341.869 97.982 344.859 94.9156 344.859 90.4229C344.859 85.859 341.869 82.7926 337.312 82.7926Z" fill="#FAD69F"/>
<path d="M332.755 82.7926V69.1721H243.257V82.8639H238.7C235.638 82.8639 231.153 84.3615 231.153 88.9254C229.658 93.4893 234.214 98.0533 238.7 98.0533H243.257C243.257 123.868 262.979 143.621 287.258 143.621C291.815 143.621 296.372 143.621 300.929 142.124C281.206 136.062 267.536 119.375 267.536 98.0533V85.9303C267.536 84.4328 269.031 82.8639 272.093 82.8639L332.755 82.7926Z" fill="#FAD69F"/>
<path d="M267.536 97.982C264.474 97.982 262.979 96.4844 262.979 94.9156V90.3516C262.979 87.2853 264.474 85.7877 267.536 85.7877C269.031 85.7877 272.093 87.2853 272.093 90.3516V94.9156C272.093 96.4844 269.031 97.982 267.536 97.982Z" fill="#704F44"/>
<path d="M308.476 97.982C305.414 97.982 303.919 96.4844 303.919 94.9156V90.3516C303.919 87.2853 305.414 85.7877 308.476 85.7877C309.971 85.7877 313.033 87.2853 313.033 90.3516V94.9156C313.033 96.4844 309.971 97.982 308.476 97.982Z" fill="#704F44"/>
<path d="M287.258 123.797C282.702 123.797 276.65 120.73 273.588 117.735C270.526 116.238 270.526 114.669 272.093 111.674C273.588 110.176 276.65 110.176 278.145 111.674C282.702 116.238 293.31 116.238 297.867 111.674C299.362 110.176 302.424 110.176 303.919 111.674C305.414 114.74 303.919 116.238 302.424 117.735C299.362 120.802 293.31 123.797 287.258 123.797Z" fill="#DCB57F"/>
<path d="M291.815 20.5378H284.268C258.494 20.5378 238.771 40.2911 238.771 66.1059V72.1674C238.771 73.6649 240.266 73.6649 240.266 73.6649H334.322C335.817 73.6649 337.383 73.6649 337.383 72.1674V66.1059C337.312 40.2911 317.59 20.5378 291.815 20.5378Z" fill="#F29F36"/>
<path d="M300.929 22.0354C297.867 20.5378 294.877 20.5378 291.815 20.5378H284.268C258.494 20.5378 238.771 40.2911 238.771 66.1059V72.1674C238.771 73.6649 240.266 73.6649 240.266 73.6649H262.979V66.1059C262.979 43.3575 279.64 25.1018 300.929 22.0354Z" fill="#E08B1B"/>
<path d="M156.82 256.008H178.038C179.533 256.008 182.594 254.511 182.594 251.444V199.815H156.82V256.008Z" fill="#FAD69F"/>
<path d="M182.594 199.744V213.435H173.552C170.49 213.435 168.995 214.933 168.995 216.502V256.008H156.891V199.815H182.594V199.744Z" fill="#DCB57F"/>
<path d="M94.6624 256.008H73.4448C71.9496 256.008 68.888 254.511 68.888 251.444V199.815H94.6624V256.008Z" fill="#FAD69F"/>
<path d="M68.888 199.744V213.435H78.0016C81.0632 213.435 82.5584 214.933 82.5584 216.502V256.008H94.6624V199.815H68.888V199.744Z" fill="#DCB57F"/>
<path d="M175.047 160.308L143.221 148.185H108.333L76.5064 160.308C68.9592 163.375 64.4024 169.436 64.4024 176.995V199.743C64.4024 202.81 67.464 204.307 68.9592 204.307H91.672V256.008H159.882V204.379H182.594C184.09 204.379 187.151 202.881 187.151 199.815V177.066C187.151 169.365 182.594 163.303 175.047 160.308Z" fill="#FCC816"/>
<path d="M108.333 148.114L99.2192 151.18C99.2192 151.18 99.2192 151.18 99.2192 152.678C99.2192 166.37 111.323 178.493 126.489 178.493C140.159 178.493 152.263 166.37 152.263 152.678C152.263 151.18 152.263 151.18 152.263 151.18L143.15 148.114H108.333V148.114Z" fill="#F29F36"/>
<path d="M126.489 169.365C115.88 169.365 108.262 161.806 108.262 152.678V122.299H143.15V152.678C143.221 161.806 135.602 169.365 126.489 169.365Z" fill="#FAD69F"/>
<path d="M108.333 140.555C114.385 142.052 120.437 143.621 126.56 143.621C132.612 143.621 137.169 142.124 143.221 140.555V122.299H108.333V140.555Z" fill="#DCB57F"/>
<path d="M178.038 69.1722H173.552V43.3574H78.0016V69.1722H73.4448C68.888 69.1722 64.3312 73.7361 64.3312 78.3001C64.3312 82.864 68.888 87.4279 73.4448 87.4279H78.0016C78.0016 113.243 99.2192 134.494 126.56 134.494C152.334 134.494 173.552 113.243 173.552 87.4279H178.109C182.666 87.4279 187.222 82.864 187.222 78.3001C187.151 73.7361 182.594 69.1722 178.038 69.1722Z" fill="#FAD69F"/>
<path d="M168.995 60.0443V43.3574H78.0016V69.1722H73.4448C70.3832 69.1722 65.8976 72.2386 65.8976 76.7312C64.4024 82.7927 68.9592 87.3566 73.4448 87.3566H78.0016C78.0016 113.171 99.2192 134.422 126.56 134.422C129.622 134.422 134.107 134.422 138.664 132.925C118.942 126.863 103.776 108.607 103.776 87.3566V64.6082C103.776 63.1107 105.271 60.0443 108.333 60.0443H168.995Z" fill="#FAD69F"/>
<path d="M91.6008 47.9214L88.5392 63.1107C87.044 66.1771 83.9824 69.1722 79.4256 69.1722H73.3736V47.9214H91.6008Z" fill="#835C4B"/>
<path d="M159.882 47.9214L162.943 63.1107C164.438 66.1771 167.5 69.1722 172.057 69.1722H178.109V47.9214H159.882Z" fill="#835C4B"/>
<path d="M103.776 87.3566C102.281 87.3566 99.2192 84.2902 99.2192 82.7927V78.2287C99.2192 75.1623 102.281 73.6648 103.776 73.6648C106.838 73.6648 108.333 75.1623 108.333 78.2287V82.7927C108.333 84.3615 106.766 87.3566 103.776 87.3566Z" fill="#61433C"/>
<path d="M147.706 87.3566C144.645 87.3566 143.15 84.2902 143.15 82.7927V78.2287C143.15 75.1623 144.645 73.6648 147.706 73.6648C149.202 73.6648 152.263 75.1623 152.263 78.2287V82.7927C152.263 84.3615 149.273 87.3566 147.706 87.3566Z" fill="#61433C"/>
<path d="M126.489 113.171C120.437 113.171 114.385 111.674 109.828 107.11C108.333 105.612 108.333 102.546 109.828 101.048C111.323 99.5509 114.385 99.5509 115.88 101.048C120.437 105.612 131.046 105.612 135.602 101.048C138.664 99.5509 140.159 99.5509 141.654 101.048C143.15 102.546 143.15 105.612 141.654 107.11C137.098 111.674 131.046 113.171 126.489 113.171Z" fill="#DCB57F"/>
<path d="M129.55 3.85083H122.003C94.7336 3.85083 73.4448 25.1016 73.4448 52.4853H178.109C178.038 25.1016 156.82 3.85083 129.55 3.85083Z" fill="#86B32D"/>
<path d="M129.55 3.85083H122.003C97.724 3.85083 78.0016 20.5377 75.0112 43.3574H38.5568C37.0616 43.3574 34 44.8549 34 47.9213C34 49.4189 37.0616 52.4853 38.5568 52.4853H103.776C103.776 29.7369 120.437 9.98362 141.654 5.41968C137.098 5.34837 134.107 3.85083 129.55 3.85083Z" fill="#79A326"/>
<path d="M88.6104 187.62L68.888 164.872C65.8264 167.938 64.3312 172.431 64.3312 176.995V199.743C64.3312 202.81 67.3928 204.307 68.888 204.307H91.6008V195.179C91.6008 192.184 90.1056 189.118 88.6104 187.62Z" fill="#F29F36"/>
<path d="M162.872 187.62L182.594 164.872C185.656 167.938 187.151 172.431 187.151 176.995V199.743C187.151 202.81 184.09 204.307 182.594 204.307H159.882V195.179C159.882 192.184 161.377 189.118 162.872 187.62Z" fill="#F29F36"/>
</svg>
