<svg width="424" height="257" viewBox="0 0 424 257" fill="none" xmlns="http://www.w3.org/2000/svg">
<g clip-path="url(#clip0)">
<path fill-rule="evenodd" clip-rule="evenodd" d="M240.597 2.2348C304.482 1.01158 371.357 29.2747 389.952 90.6447C407.785 149.497 363.963 205.408 312.074 238.126C270.617 264.266 220.333 250.956 180.092 222.967C135.977 192.282 93.5654 147.995 107.805 96.047C123.682 38.1263 180.769 3.38037 240.597 2.2348Z" fill="url(#paint0_linear)"/>
<path d="M181.977 160.572C155.617 168.072 133.023 179.322 104.781 186.822C99.0575 188.453 94.407 192.241 90.6602 197.041C134.323 213.466 183.972 198.859 223.398 177.447C224.039 177.128 224.698 176.866 225.375 176.622C213.664 164.734 197.001 158.078 181.977 160.572Z" fill="url(#paint1_linear)"/>
<path d="M264.818 102.447C263.482 97.1032 261.184 91.7407 260.657 85.7219C230.269 100.234 184.366 116.997 195.154 147.447C199.617 158.528 213.945 168.297 230.758 171.709C249.153 152.322 271.879 132.334 264.818 102.447Z" fill="url(#paint2_linear)"/>
<path d="M263.486 84.3532C262.225 82.1407 260.794 80.0782 259.175 78.2219C244.47 94.0094 216.623 99.8782 198.925 109.947C181.979 119.322 185.745 145.572 166.917 158.697C140.558 173.697 114.198 181.197 85.956 179.322C82.1903 179.322 76.5419 179.322 70.8935 177.447C63.3622 175.572 57.7138 169.947 53.9481 164.322C49.2788 155.003 48.7892 145.366 51.0486 136.328C46.7181 144.222 44.3081 152.716 43.781 161.266C51.0486 182.941 66.7889 196.328 86.4078 203.547C124.742 217.647 177.988 208.159 212.104 190.572C218.016 187.628 223.514 184.122 228.654 180.203C227.619 178.966 226.508 177.784 225.378 176.622C224.7 176.866 224.041 177.128 223.401 177.447C183.975 198.859 134.325 213.466 90.663 197.041C94.4098 192.241 99.0415 188.453 104.784 186.822C133.026 179.322 155.62 168.072 181.979 160.572C198.454 157.834 216.924 166.084 228.654 180.203C231.704 177.878 234.585 175.366 237.353 172.722C252.754 158.059 263.919 138.972 270.622 118.066C270.867 105.241 268.626 93.4282 263.486 84.3532ZM230.763 171.709C213.95 168.297 199.621 158.528 195.159 147.447C184.371 116.997 230.274 100.234 260.662 85.7219C261.189 91.7594 263.486 97.1032 264.823 102.447C271.884 132.334 249.158 152.322 230.763 171.709Z" fill="#F5F7EA"/>
<path d="M259.171 78.2216C254.464 72.8028 248.232 68.9966 240.268 67.4778C210.199 61.7403 219.802 78.2966 175.028 91.6841C147.05 100.047 85.0487 98.8466 62.1161 121.665C57.5785 126.184 53.8882 131.134 51.0451 136.347C48.7858 145.365 49.2753 155.003 53.9447 164.322C57.7103 169.947 63.3587 175.572 70.89 177.447C76.5384 179.322 82.1869 179.322 85.9525 179.322C114.195 181.197 140.554 173.697 166.913 158.697C196.097 147.915 181.976 119.322 198.921 109.947C216.62 99.8778 244.466 94.0091 259.171 78.2216Z" fill="url(#paint3_linear)"/>
<path d="M212.102 190.571C160.513 217.14 65.2431 225.296 43.7602 161.284C42.8753 175.59 47.2622 190.084 56.7328 202.215C75.5986 226.384 101.901 237.784 150.422 231.071C198.96 224.359 243.432 204.221 260.284 164.621C266.629 149.715 270.338 133.215 270.62 118.084C260.679 149.059 240.966 176.19 212.102 190.571Z" fill="url(#paint4_linear)"/>
<path d="M217.43 118.065C215.039 123.709 209.052 130.571 198.602 130.571C188.153 130.571 179.454 123.878 179.454 117.765C179.454 111.634 189.489 108.39 199.958 106.984C210.332 105.596 219.953 112.14 217.43 118.065Z" fill="#F5F7EA"/>
<path d="M199.978 126.353C207.787 126.353 214.118 122.643 214.118 118.066C214.118 113.489 207.787 109.778 199.978 109.778C192.168 109.778 185.838 113.489 185.838 118.066C185.838 122.643 192.168 126.353 199.978 126.353Z" fill="#FFDECD"/>
<path d="M199.977 123.297C204.906 123.297 208.901 120.955 208.901 118.065C208.901 115.176 204.906 112.834 199.977 112.834C195.048 112.834 191.052 115.176 191.052 118.065C191.052 120.955 195.048 123.297 199.977 123.297Z" fill="url(#paint5_radial)"/>
</g>
<defs>
<linearGradient id="paint0_linear" x1="133.879" y1="127.291" x2="370.561" y2="127.291" gradientUnits="userSpaceOnUse">
<stop stop-color="#F9B233"/>
<stop offset="1" stop-color="#F39200"/>
</linearGradient>
<linearGradient id="paint1_linear" x1="90.6677" y1="182.072" x2="225.375" y2="182.072" gradientUnits="userSpaceOnUse">
<stop stop-color="#B63B3B"/>
<stop offset="0.882" stop-color="#D64449"/>
</linearGradient>
<linearGradient id="paint2_linear" x1="193.544" y1="128.714" x2="266.136" y2="128.714" gradientUnits="userSpaceOnUse">
<stop stop-color="#9E3333"/>
<stop offset="0.882" stop-color="#D64449"/>
</linearGradient>
<linearGradient id="paint3_linear" x1="49.7385" y1="122.953" x2="259.171" y2="122.953" gradientUnits="userSpaceOnUse">
<stop stop-color="#A83737"/>
<stop offset="0.882" stop-color="#D64449"/>
</linearGradient>
<linearGradient id="paint4_linear" x1="157.141" y1="179.321" x2="157.141" y2="233.303" gradientUnits="userSpaceOnUse">
<stop stop-color="#FF9D85"/>
<stop offset="0.882" stop-color="#ECDEC9"/>
</linearGradient>
<radialGradient id="paint5_radial" cx="0" cy="0" r="1" gradientUnits="userSpaceOnUse" gradientTransform="translate(199.973 118.073) scale(7.32791 7.2975)">
<stop stop-color="#F79792"/>
<stop offset="0.882" stop-color="#EE7276"/>
</radialGradient>
<clipPath id="clip0">
<rect y="0.196777" width="424" height="256" fill="white"/>
</clipPath>
</defs>
</svg>
