<svg width="424" height="257" viewBox="0 0 424 257" fill="none" xmlns="http://www.w3.org/2000/svg">
<g clip-path="url(#clip0)">
<path fill-rule="evenodd" clip-rule="evenodd" d="M378.999 144.062C379.318 194.276 316.13 227.049 251.403 242.569C186.661 258.093 111.144 258.053 69.646 218.238C25.1217 175.52 28.5984 114.448 73.6633 72.04C114.455 33.6525 187.196 33.5017 250.169 48.3559C314.344 63.4933 378.683 94.3538 378.999 144.062Z" fill="url(#paint0_linear)"/>
<g clip-path="url(#clip1)">
<path d="M290.817 83.8481C297.745 106.915 256.476 139.719 198.621 157.095C140.775 174.468 88.2442 169.836 81.3162 146.769C74.379 123.671 115.669 90.8757 173.515 73.5023C231.37 56.1262 283.879 60.7502 290.817 83.8481Z" fill="#A6A8AB"/>
<path d="M270.964 142.255C328.813 124.88 370.09 92.0868 363.159 69.0082C356.228 45.9296 303.712 41.3055 245.863 58.68C188.013 76.0544 146.736 108.848 153.668 131.927C160.599 155.005 213.114 159.629 270.964 142.255Z" fill="#A6A8AB"/>
<path d="M235.231 137.378C190.927 150.684 148.297 152.955 116.781 145.757C117.133 147.901 117.596 150.036 118.232 152.152C130.217 192.056 189.028 209.661 249.584 191.474C310.149 173.284 349.527 126.184 337.543 86.284C337.086 84.7618 336.549 83.2924 335.947 81.8471C313.431 104.155 277.78 124.599 235.223 137.381" fill="#D0D2D3"/>
<path d="M177.214 148.783C154.771 150.794 134.089 149.725 116.794 145.767C117.145 147.911 117.609 150.046 118.244 152.162C130.229 192.066 189.04 209.672 249.596 191.484C254.37 190.05 258.991 188.413 263.499 186.637C223.862 188.143 190.143 174.057 177.214 148.783Z" fill="#B6B6B7"/>
<path d="M339.885 47.5648C347.986 74.5388 299.715 112.87 232.111 133.174C164.485 153.485 103.086 148.058 94.9939 121.115C86.8899 94.1322 135.137 55.7697 202.763 35.4589C270.368 15.1548 331.775 20.5644 339.885 47.5648Z" fill="#D0D2D3"/>
<path d="M228.551 124.51C286.403 107.135 327.68 74.3348 320.746 51.249C313.813 28.1631 261.294 23.5337 203.442 40.9089C145.59 58.284 104.313 91.0842 111.246 114.17C118.18 137.256 170.699 141.885 228.551 124.51Z" fill="#A6A8AB"/>
<path d="M125.361 73.675C119.789 82.6536 113.703 91.2492 107.747 99.9736C102.442 107.716 114.495 115.397 120.632 109.193C126.364 103.428 132.064 97.7498 138.446 92.6961C134.436 89.8044 130.417 86.9298 126.411 84.0367C125.436 87.6854 124.189 91.2557 122.678 94.7171C119.546 102.574 129.188 111.377 135.566 103.946C139.791 99.041 143.932 94.1614 148.495 89.5677L134.888 82.2534C133.956 85.9387 133.448 89.5495 132.957 93.3279C132.019 100.344 141.145 107.719 146.567 100.651C150.977 94.9235 155.059 89.2079 158.69 82.9469C163.581 74.5757 152.27 68.0874 145.811 73.7157C145.526 74.3001 145.268 74.8766 145.002 75.4601C145.137 79.2327 145.266 82.9977 145.404 86.75C147.854 83.9285 150.778 81.557 154.044 79.7425C160.901 75.3135 157.428 65.2192 149.613 64.9906C148.853 64.9649 148.101 64.9365 147.347 64.9183L151.78 79.679C154.807 77.3645 157.915 75.6062 161.284 73.8266C157.907 69.7519 154.546 65.6676 151.177 61.6048C140.608 71.4654 104.224 93.0984 124.554 110.275C125.586 105.758 126.647 101.271 127.701 96.7629C126.274 97.0427 124.851 97.3213 123.422 97.5923C114.354 98.3493 112.858 110.809 121.727 113.364C124.881 114.445 128.116 115.234 131.42 115.71C131.283 110.561 131.141 105.423 130.996 100.277C127.842 101.45 124.711 102.635 121.581 103.858C111.899 107.586 116.11 121.205 126.178 119.164C136.569 117.046 150.554 115.843 158.431 107.779C160.931 105.196 162.172 103.212 163.673 100.065C164.728 97.8444 165.895 95.695 167.093 93.551C172.542 83.842 165.696 96.3401 163.965 90.4662L173.504 80.4017C172.141 80.0629 170.787 79.7069 169.434 79.3699C169.568 84.5099 169.719 89.6447 169.846 94.7962C172.779 95.0426 175.693 95.2898 178.606 95.5182L178.193 80.0918C173.934 80.8484 169.776 82.0971 165.804 83.8128C160.163 86.2218 158.155 92.6333 162.652 97.3214C170.626 105.618 183.214 105.976 194.041 105.214C204.315 104.527 203.952 88.5437 193.679 89.2355C187.278 89.6758 178.488 90.7332 173.592 85.6276C172.523 90.1168 171.494 94.6131 170.427 99.1256C174.404 97.4229 178.56 96.1747 182.816 95.4046C191.133 93.8854 189.431 81.9258 182.394 79.9766C176.288 78.2994 171.473 78.3498 165.267 79.4847C157.076 80.9758 158.534 93.0806 165.693 94.8925L169.756 95.9314C175.693 97.448 180.974 91.6173 179.283 85.8608C175.853 74.1182 165.544 70.2833 157.004 80.0958C153.471 84.1739 151.081 89.3619 148.807 94.1841C145.262 101.671 128.827 102.367 121.602 103.847L126.199 119.153C129.332 117.947 132.473 116.761 135.62 115.594C142.59 112.978 143.539 101.748 135.207 100.164C131.908 99.6897 128.661 98.9047 125.509 97.8191C124.937 103.085 124.368 108.33 123.826 113.582C126.702 113.357 129.551 112.856 132.332 112.088C137.992 110.522 140.086 102.468 135.468 98.5742C132.655 96.1863 159.779 75.4107 162.911 72.5035C169.906 65.9946 160.394 56.2656 152.801 60.2873C149.451 62.0559 146.349 63.8318 143.305 66.137C137.043 70.9051 139.514 80.6481 147.738 80.8977C148.506 80.9164 149.254 80.9461 150.009 80.9542L145.579 66.2023C141.055 69.1535 137.219 71.73 133.726 75.8442C131.194 78.8493 130.474 84.519 134.131 87.1429C142.944 93.4894 149.584 91.5623 157.543 84.6056C153.246 81.541 148.943 78.4588 144.656 75.3771C141.72 80.374 138.465 85.1761 134.91 89.7532L148.532 97.0825C149.033 93.3058 149.516 89.6928 150.461 86.0035C152.485 78.0331 142.368 73.1096 136.831 78.6769C132.27 83.2794 128.136 88.1664 123.911 93.0566L136.781 102.29C138.686 97.4877 140.51 92.7333 141.993 87.7842C143.894 81.4335 135.501 74.745 129.963 79.1423C122.498 85.0776 115.682 91.528 108.964 98.2748C113.26 101.368 117.568 104.454 121.868 107.527C127.816 98.8243 133.895 90.2067 139.466 81.2382C144.916 72.4739 130.809 64.9687 125.386 73.6772" fill="#00A551"/>
<path d="M158.348 108.572C164.572 112.333 170.83 112.569 177.921 111.586C177.094 106.371 176.265 101.152 175.446 95.9347C173.98 96.3162 172.447 96.367 170.958 96.0835C171.775 101.311 172.616 106.522 173.447 111.749C182.855 108.929 200.694 104.717 199.917 91.4919C198.99 75.6781 184.395 66.9433 170.062 65.6167L172.532 81.2646L173.913 80.8497C182.928 78.1422 180.164 65.6813 171.431 65.2058C166.363 64.9244 161.51 64.6888 156.517 63.7804C156.648 68.9117 156.802 74.0552 156.931 79.2111C161.282 78.1441 179.88 77.3212 180.359 84.0892C180.625 87.9615 182.909 90.4556 186.465 91.6901C198.073 95.6716 209.861 100.712 222.377 99.7446C231.642 99.0342 232.703 86.7578 224.075 83.9819C222.386 83.4466 220.621 83.1846 218.849 83.206L223.281 97.9623L227.685 95.1383C236.338 89.5991 227.858 76.0251 219.175 81.607C217.719 82.5574 216.249 83.5074 214.766 84.4323C207.987 88.7851 211.375 99.092 219.198 99.1885C219.577 99.3002 219.951 99.4131 220.313 99.5301C220.875 94.2626 221.452 89.0146 222.012 83.7573C211.015 84.5901 200.422 79.6464 190.234 76.1494L196.343 83.7445C194.906 63.4363 168.151 60.0513 152.325 63.893C144.696 65.7526 144.983 77.9168 152.749 79.3255C159.085 80.4587 165.393 80.8281 171.807 81.1848C170.974 75.967 170.144 70.7581 169.325 65.5263L167.944 65.9412C158.718 68.7121 161.892 80.8147 170.43 81.5983C174.067 81.9356 188.41 88.2038 181.54 92.2385C177.861 94.4084 172.928 95.2328 168.859 96.426C159.57 99.211 162.862 111.226 171.33 112.064C174.321 112.374 177.133 111.822 180.063 111.244C188.874 109.534 186.484 94.375 177.581 95.6005C173.292 96.1883 169.965 96.9286 165.933 94.5085C157.095 89.1626 149.553 103.26 158.366 108.566" fill="#00A551"/>
<path d="M305.011 58.2491C299.289 63.0566 293.523 67.7814 287.962 72.7753C282.119 78.0413 288.828 88.7036 296.112 85.8875C303.292 83.093 309.874 79.3751 316.752 75.9423L305.472 65.406C298.689 76.3118 280.354 79.8952 268.837 83.3735C260.366 85.9272 262.145 99.8685 271.308 99.0257C279.691 98.2395 286.741 95.9686 294.217 92.1453C301.11 88.6025 297.551 76.4187 289.783 77.3847C274.47 79.274 260.601 84.9213 246.155 90.0659C230.668 95.6094 214.066 97.6025 198.238 102.011C188.163 104.831 192.921 119.297 202.835 117.317C211.818 115.526 220.093 113.295 228.338 109.365C235.319 106.05 231.604 93.4241 223.906 94.6088C207.106 97.17 180.586 100.665 171.128 116.878C174.095 115.545 177.072 114.229 180.05 112.889C171.524 111.953 163.581 110.194 155.144 112.397C149.703 113.815 147.063 122.273 151.996 125.89C154.19 127.524 156.394 129.131 158.572 130.76C161.026 126.219 163.47 121.691 165.901 117.138C152.673 114.377 140.903 110.209 127.58 114.671C120.217 117.146 120.022 128.299 128.001 130.094C157.38 136.739 189.646 135.351 218.394 126.353C228.256 123.256 223.744 108.457 213.797 111.046C208.483 112.407 203.152 113.596 197.839 114.976C189.203 117.205 191.305 131.534 200.332 130.621C224.857 128.148 247.18 119.448 269.334 109.048C277.676 105.123 271.164 92.0949 262.787 94.6108L256.491 96.5016L261.088 111.808C270.848 108.848 282.016 105.887 289.412 98.3465C292.208 95.5019 304.873 71.8263 306.612 72.1865C310.892 73.0547 315.21 70.6307 316.261 66.2906C317.159 62.5723 318.248 58.9644 318.918 55.2044L305.719 59.1685C308.447 60.8911 310.807 63.046 312.785 65.6079C315.86 61.3125 318.95 57.022 322.025 52.7267C314.794 47.8141 307.687 46.1403 299.06 45.4936C295.342 45.2193 292.447 48.4199 291.462 51.608C290.604 53.6881 290.122 55.8188 289.969 58.0567C293.827 56.3368 297.669 54.6122 301.517 52.8906C294.586 49.7441 288.888 45.1144 281.474 43.0579C274.013 41.0059 267.723 51.6677 274.142 56.6708C276.474 58.4934 278.57 59.9311 281.153 61.3951C282.353 56.3967 283.551 51.3794 284.762 46.3727C276.895 46.9753 269.496 46.6648 261.822 48.6916C256.91 49.97 254.491 56.3851 257.345 60.5836C259.069 63.2891 260.983 65.8608 263.079 68.2911L265.601 57.2502C263.892 58.5404 262.704 59.7415 261.493 61.4914C259.446 64.4515 260.721 68.822 263.072 71.1234C264.884 72.7808 266.561 74.5649 268.102 76.4714C269.851 71.8499 271.626 67.2351 273.364 62.6264C264.206 63.7367 255.256 56.1697 247.211 52.5233C239.393 48.9956 231.982 48.4827 223.67 49.8567C214.535 51.382 217.455 65.59 226.153 65.5007C237.587 65.3858 248.331 63.2621 259.29 60.1289C269.321 57.2746 264.62 42.6469 254.691 44.8183C238.742 48.3134 238.365 58.5088 231.899 71.2334L246.586 72.7218C244.21 67.0465 255.161 60.117 258.664 57.5829C267.345 51.2393 275.689 50.4839 286.194 52.6243C296.301 54.6729 300.053 39.1374 289.946 37.0598C273.307 33.673 260.91 36.1396 247.282 46.0988C237.949 52.9068 225.981 64.6744 231.277 77.2911C233.804 83.3095 242.524 85.5447 245.963 78.7751C249.879 71.0853 249.46 62.2466 259.284 60.0924L254.685 44.7818C245.101 47.526 235.785 49.3888 225.786 49.49L228.265 65.1396C244.72 62.4039 256.852 80.632 273.745 78.5706C280.98 77.6831 283.812 70.1991 279.009 64.7155C277.477 62.8115 275.799 61.0303 273.989 59.3882C274.505 62.5909 275.038 65.8027 275.575 69.0132C275.078 69.5942 274.608 70.1672 274.131 70.7372C277.293 68.3773 279.525 63.3184 276.64 59.7192C274.529 57.3069 272.612 54.7312 270.907 52.0161C269.406 55.9779 267.929 59.9564 266.425 63.9239C272.589 62.3125 278.858 62.7752 285.11 62.2884C293.026 61.6857 295.901 51.3299 288.719 47.266C287.496 46.5013 286.275 45.7074 285.053 44.9136C282.596 49.46 280.165 53.9985 277.716 58.5423C283.606 60.1548 288.427 64.4051 293.944 66.9162C298.236 68.8601 304.72 67.1812 305.49 61.7602C305.647 59.5355 306.142 57.382 306.993 55.3133C304.472 57.3653 301.929 59.3906 299.409 61.4426C305.436 61.8821 309.511 63.4111 314.441 66.7461C322.38 72.1465 329.456 60.126 323.667 53.8644C321.705 51.3241 319.313 49.1479 316.599 47.4351C312.181 44.0806 304.565 44.9625 303.4 51.3992C302.712 55.1601 301.651 58.7689 300.745 62.4899C303.946 60.5163 307.182 58.5613 310.394 56.5939C300.449 54.5589 294.175 58.3907 289.443 67.1649C286.125 73.2696 284.795 79.0939 280.372 84.744C274.777 91.8588 264.751 93.9633 256.538 96.4493C246.679 99.4294 251.271 114.718 261.135 111.755L267.426 109.866L260.876 95.4487C241.449 104.564 221.524 112.39 200.015 114.572C200.828 119.786 201.663 125.008 202.474 130.218C207.792 128.856 213.119 127.668 218.436 126.302L213.839 110.995C187.766 119.143 158.45 120.532 131.788 114.515C131.944 119.667 132.076 124.803 132.217 129.936C142.548 126.483 152.066 130.512 162.197 132.64C169.397 134.142 176.381 124.083 169.516 119.017C167.323 117.383 165.13 115.768 162.919 114.139C161.865 118.648 160.828 123.147 159.775 127.641C165.276 126.204 170.833 127.778 176.325 128.383C180.055 128.792 183.235 127.818 185.236 124.406C190.843 114.808 214.312 112.076 224.333 110.53L219.901 95.7734C213.019 99.0201 205.708 100.468 198.294 101.956L202.891 117.262C217.141 113.285 231.752 110.877 246.005 106.879C260.939 102.701 274.619 95.2301 290.185 93.3179L285.752 78.5572C281.266 81.2234 276.194 82.7467 270.982 82.993L273.468 98.6312C289.838 93.6955 310.002 88.3445 319.572 72.9226C324.23 65.4803 314.79 59.1397 308.297 62.3705C302.716 65.1257 297.385 68.262 291.56 70.5245C294.27 74.9004 296.99 79.2445 299.709 83.6177C305.26 78.6409 311.029 73.8959 316.747 69.1043C324.607 62.489 312.835 51.6546 305.057 58.2258" fill="url(#paint1_linear)"/>
<path d="M220.329 127.323C230.131 124.906 239.78 122.009 249.291 118.624C257.32 115.748 256.125 101.53 246.815 102.969C235.283 104.754 224.56 108.703 213.465 112.103C215.647 116.925 217.838 121.711 220.018 126.529C227.636 122.97 234.858 119.722 241.255 114.145C249.017 107.363 237.265 96.5319 229.565 103.267C224.432 107.734 217.613 110.166 211.515 113.005C203.194 116.904 209.662 130.023 218.068 127.445C227.674 124.469 237.209 120.507 247.19 118.958C246.354 113.746 245.528 108.536 244.697 103.312C235.199 106.707 225.532 109.61 215.735 112.011C205.708 114.48 210.364 129.788 220.339 127.339" fill="#9B51E0"/>
<path d="M278.624 61.2689C267.261 68.7587 255.452 74.7468 242.602 79.2489C234.525 82.0776 235.819 96.3662 245.081 94.8986C247.603 94.5299 250.076 93.8867 252.458 92.9805C260.414 89.9913 259.429 76.0752 250.001 77.3432C249.391 77.4166 248.782 77.4957 248.173 77.5805C250.483 78.8197 252.82 80.0699 255.128 81.3337C255.765 84.1883 255.838 84.1948 255.31 81.3653C254.833 80.2336 254.31 79.1217 253.743 78.0324C249.117 68.8263 235.627 77.3771 240.201 86.522C238.391 82.9071 241.051 89.1301 241.597 89.8295C243.965 92.8261 246.59 93.8218 250.358 93.3186C249.529 88.0996 248.711 82.8867 247.865 77.673C246.806 78.0552 245.761 78.4732 244.73 78.9262C245.564 84.1294 246.387 89.3453 247.204 94.5582C261.278 89.6448 274.687 83.0057 287.127 74.7928C295.718 69.1573 287.244 55.5863 278.624 61.2689Z" fill="#9B51E0"/>
<path d="M199.241 59.0272C211.888 55.1904 224.41 51.0171 237.323 48.1605C235.136 43.3542 232.955 38.5364 230.767 33.7402C226.264 36.3636 221.206 37.6332 216.342 39.5017C208.09 42.6564 209.487 55.2114 218.834 55.1429C223.594 55.1186 228.558 54.0307 233.315 54.5396C232.517 49.695 231.705 44.8499 230.936 40.0062C223.232 45.8166 215.379 51.3362 207.139 56.3385C202.161 59.3589 202.145 67.561 207.603 70.1474C210.036 71.3016 212.221 72.5066 214.832 73.2956L210.868 60.0967C210.021 61.109 209.181 62.1288 208.342 63.1529C205.287 66.8428 205.42 73.4507 210.401 75.6479C213.256 76.9107 215.758 78.3271 218.836 79.0095L216.459 64.4515C214.78 65.8573 213.526 67.0783 212.411 68.972C209.95 73.107 212.53 79.829 217.565 80.5279C219.485 80.786 221.199 81.0002 223.116 80.8368C233.344 79.9475 233.011 63.9698 222.76 64.8613C222.273 64.902 221.804 64.9373 221.335 64.9872L226.486 76.5343C225.989 77.0193 225.48 77.5127 224.973 77.996C229.954 73.9003 230.055 65.083 222.593 63.4437C220.887 63.0641 219.568 62.2514 217.973 61.5408C218.649 65.7074 219.363 69.8577 220.028 74.0182C220.883 73.0178 221.719 71.9994 222.561 70.9695C226.486 66.2317 224.502 59.5319 218.583 57.7267C217.467 57.1293 216.333 56.568 215.181 56.0434C215.322 60.6489 215.48 65.2491 215.631 69.8563C223.873 64.8628 231.748 59.3176 239.424 53.5107C244.211 49.9193 244.689 39.8039 237.056 38.9835C230.764 38.2977 224.742 39.0894 218.455 39.1261C219.29 44.3482 220.101 49.5726 220.926 54.7784C227.163 52.4062 233.472 50.6363 239.27 47.2496C247.435 42.495 241.154 30.9562 232.714 32.8292C219.801 35.6858 207.276 39.8503 194.629 43.6871C184.784 46.7112 189.378 62.0086 199.237 59.0285" fill="#9B51E0"/>
<path d="M255.155 44.2239C268.4 44.4235 281.422 46.4985 294.334 49.4218C294.891 44.1702 295.456 38.9116 296.023 33.6617C292.646 33.7407 289.535 34.5121 286.221 35.1524C282.694 35.8184 280.566 39.7047 280.519 42.9805C280.564 38.0696 285.873 36.6767 282.258 37.8777C280.305 38.4688 278.274 38.8584 276.299 39.2643C272.766 39.9707 269.169 40.4034 265.684 41.3206C258.822 43.1175 258.239 52.7849 264.197 56.0127C268.817 58.5246 272.917 58.4397 277.907 57.2C287.95 54.7544 283.296 39.4654 273.31 41.8938C272.811 41.8948 272.286 41.9183 271.78 41.9264C271.274 46.822 270.791 51.7154 270.291 56.6286C278.764 54.3859 296.386 54.974 296.512 42.6187C294.618 45.2404 292.729 47.8462 290.828 50.4604C292.654 50.0225 294.516 49.7557 296.402 49.6306C305.448 49.4223 307 35.8905 298.085 33.8675C283.87 30.6449 269.389 28.4419 254.797 28.2295C244.436 28.099 244.876 44.0973 255.155 44.2239Z" fill="#BB6BD9"/>
<path d="M306.609 59.5835C305.508 61.9718 304.296 64.2593 302.854 66.4527C303.227 65.9857 303.112 66.1305 302.525 66.9064C302.168 67.3637 301.8 67.8003 301.431 68.247C301.045 68.6815 300.648 69.1062 300.24 69.5208C300.341 69.3945 298.288 71.3399 299.24 70.5502C295.877 73.311 294.191 77.5201 296.715 81.5779C298.807 84.9019 304.372 86.871 307.74 84.0944C313.429 79.4167 317.591 73.8401 320.704 67.1494C322.535 63.1989 321.438 58.4776 317.452 56.322C313.773 54.3717 308.439 55.6331 306.607 59.5791" fill="#9B51E0"/>
<path d="M151.66 126.118C155.713 124.905 159.894 124.244 164.078 123.549C168.386 122.816 170.558 117.367 169.426 113.597C168.05 109.017 163.771 107.515 159.477 108.229C155.298 108.942 151.126 109.634 147.063 110.811C142.859 112.036 140.456 116.633 141.702 120.782C142.962 124.979 147.456 127.342 151.66 126.118Z" fill="#9B51E0"/>
</g>
</g>
<defs>
<linearGradient id="paint0_linear" x1="379" y1="145.697" x2="38" y2="145.697" gradientUnits="userSpaceOnUse">
<stop stop-color="#EB5757"/>
<stop offset="1" stop-color="#E24E4E"/>
</linearGradient>
<linearGradient id="paint1_linear" x1="141.084" y1="112.872" x2="308.96" y2="62.4529" gradientUnits="userSpaceOnUse">
<stop stop-color="#F9B233"/>
<stop offset="1" stop-color="#F39200"/>
</linearGradient>
<clipPath id="clip0">
<rect y="0.196777" width="424" height="256" fill="white"/>
</clipPath>
<clipPath id="clip1">
<rect x="23.9288" y="-44.3066" width="294" height="294" transform="rotate(-16.717 23.9288 -44.3066)" fill="white"/>
</clipPath>
</defs>
</svg>
