<svg width="424" height="257" viewBox="0 0 424 257" fill="none" xmlns="http://www.w3.org/2000/svg">
<g clip-path="url(#clip0)">
<ellipse cx="212.5" cy="124.697" rx="90.877" ry="133.276" transform="rotate(45 212.5 124.697)" fill="#9B51E0"/>
<ellipse cx="203.792" cy="115.989" rx="78.5626" ry="133.276" transform="rotate(45 203.792 115.989)" fill="url(#paint0_linear)"/>
<path d="M157.112 109.373V113.522H140.486V110.222L148.972 102.207C149.873 101.348 150.48 100.615 150.795 100.007C151.109 99.3787 151.266 98.7605 151.266 98.1529C151.266 97.2729 150.962 96.6024 150.355 96.1414C149.768 95.6595 148.898 95.4186 147.746 95.4186C146.782 95.4186 145.913 95.6071 145.137 95.9843C144.362 96.3405 143.713 96.8853 143.189 97.6186L139.48 95.23C140.339 93.9519 141.523 92.9566 143.032 92.2442C144.54 91.5108 146.269 91.1442 148.217 91.1442C149.852 91.1442 151.277 91.4166 152.492 91.9613C153.728 92.4852 154.681 93.2395 155.352 94.2242C156.043 95.1881 156.389 96.33 156.389 97.65C156.389 98.8444 156.138 99.9653 155.635 101.013C155.132 102.061 154.158 103.255 152.712 104.596L147.652 109.373H157.112Z" fill="white"/>
<path d="M179.052 108.902H175.469V113.522H170.503V108.902H158.654V105.476L169.026 91.5213H174.369L164.752 104.753H170.66V100.636H175.469V104.753H179.052V108.902Z" fill="white"/>
<path d="M189.451 87.0583H193.82L183.448 116.665H179.079L189.451 87.0583Z" fill="white"/>
<path d="M211.088 91.5213V94.8214L202.917 113.522H197.385L205.274 95.67H197.982V99.2529H193.456V91.5213H211.088Z" fill="white"/>
<path d="M231.266 36.8711C233.716 38.5128 235.9 40.4806 237.774 42.7812C245.407 52.1524 246.592 65.4425 242.368 79.83L256.101 77.7687C261.531 60.0512 260.221 43.6415 250.847 32.1328C248.409 29.14 245.536 26.6141 242.295 24.5452L231.266 36.8711Z" fill="#F9B233"/>
<path d="M235.224 20.9674C227.284 17.8538 217.862 16.8034 207.613 17.7181L202.813 30.7552C210.705 30.1534 217.981 30.9752 224.201 33.2868L235.224 20.9674Z" fill="#F9B233"/>
<path d="M132.52 67.0785C135.974 63.5672 139.711 60.1591 143.712 56.8998C159.541 44.0071 176.81 35.6478 192.548 32.2682L197.345 19.2361C178.088 23.1624 156.847 33.3264 137.408 49.16C132.237 53.3717 127.433 57.7896 123.021 62.3458L132.52 67.0785Z" fill="#F9B233"/>
<path d="M124.276 76.2969L114.777 71.5635C106.637 81.4397 100.294 91.7275 95.9761 101.803L109.709 99.742C113.156 91.9253 118.063 83.9696 124.276 76.2969Z" fill="#F9B233"/>
<path d="M106.151 109.489L92.4121 111.551C87.116 129.124 88.4743 145.381 97.7815 156.808C100.307 159.909 103.3 162.508 106.685 164.618L117.709 152.299C115.118 150.612 112.816 148.568 110.855 146.16C103.289 136.871 102.058 123.731 106.151 109.489Z" fill="#F9B233"/>
<path d="M124.843 155.806L113.814 168.132C121.77 171.161 131.184 172.147 141.41 171.187L146.208 158.155C138.34 158.8 131.074 158.039 124.843 155.806Z" fill="#F9B233"/>
<path d="M156.495 156.583L151.696 169.62C170.843 165.633 191.92 155.501 211.221 139.781C216.342 135.609 221.104 131.235 225.482 126.724L215.982 121.991C212.563 125.457 208.869 128.821 204.916 132.041C189.226 144.821 172.121 153.146 156.495 156.583Z" fill="#F9B233"/>
<path d="M224.241 112.78L233.74 117.513C241.828 107.722 248.152 97.5228 252.485 87.5244L238.747 89.5865C235.289 97.3249 230.404 105.192 224.241 112.78Z" fill="#F9B233"/>
</g>
<defs>
<linearGradient id="paint0_linear" x1="203.792" y1="-17.2867" x2="203.792" y2="249.265" gradientUnits="userSpaceOnUse">
<stop stop-color="#BB6BD9"/>
<stop offset="1" stop-color="#BB6BD9" stop-opacity="0"/>
</linearGradient>
<clipPath id="clip0">
<rect y="0.196777" width="424" height="256" fill="white"/>
</clipPath>
</defs>
</svg>
