<svg width="55" height="44" viewBox="0 0 55 44" fill="none" xmlns="http://www.w3.org/2000/svg">
<path d="M31.4641 40.0818L33.4545 43.144C47.2345 33.8809 54.89 22.6273 54.89 13.3641C54.89 4.4072 48.3062 0.196671 42.7177 0.196671C35.6746 0.196671 30.6986 6.16796 30.6986 12.4455C30.6986 17.7278 34.067 22.2445 38.5837 23.9287C39.8852 24.3881 41.11 24.7708 41.11 26.9909C41.11 29.8235 39.0431 34.034 31.4641 40.0818ZM1.07177 40.0818L3.0622 43.144C16.689 33.8809 24.4976 22.6273 24.4976 13.3641C24.4976 4.4072 17.7608 0.196671 12.1722 0.196671C5.05263 0.196671 0 6.16796 0 12.4455C0 17.7278 3.44497 22.2445 8.11483 23.9287C9.41627 24.3881 10.5646 24.7708 10.5646 26.9909C10.5646 29.8235 8.42105 34.034 1.07177 40.0818Z" fill="#B70E0C"/>
</svg>
