<svg width="27" height="27" viewBox="0 0 27 27" fill="none" xmlns="http://www.w3.org/2000/svg">
<circle cx="13" cy="13" r="10" fill="#828282"/>
<path d="M19.6093 14.276C19.7336 14.1525 19.8322 14.0056 19.8995 13.8438C19.9667 13.682 20.0014 13.5085 20.0014 13.3333C20.0014 13.1581 19.9667 12.9846 19.8995 12.8229C19.8322 12.6611 19.7336 12.5142 19.6093 12.3907L13.952 6.73333C13.7005 6.49046 13.3637 6.35606 13.0141 6.3591C12.6645 6.36214 12.3301 6.50236 12.0829 6.74958C11.8357 6.99679 11.6955 7.3312 11.6924 7.6808C11.6894 8.03039 11.8238 8.3672 12.0667 8.61867L15.448 12H8C7.64638 12 7.30724 12.1405 7.05719 12.3905C6.80714 12.6406 6.66667 12.9797 6.66667 13.3333C6.66667 13.687 6.80714 14.0261 7.05719 14.2761C7.30724 14.5262 7.64638 14.6667 8 14.6667H15.448L12.0667 18.048C11.8238 18.2995 11.6894 18.6363 11.6924 18.9859C11.6955 19.3355 11.8357 19.6699 12.0829 19.9171C12.3301 20.1643 12.6645 20.3045 13.0141 20.3076C13.3637 20.3106 13.7005 20.1762 13.952 19.9333L19.6093 14.276ZM13.3333 26.6667C5.96933 26.6667 0 20.6973 0 13.3333C0 5.96933 5.96933 0 13.3333 0C20.6973 0 26.6667 5.96933 26.6667 13.3333C26.6667 20.6973 20.6973 26.6667 13.3333 26.6667Z" fill="white"/>
</svg>
