<svg width="41" height="41" viewBox="0 0 41 41" fill="none" xmlns="http://www.w3.org/2000/svg">
<circle cx="20" cy="20" r="15" fill="#828282"/>
<path d="M29.9139 21.914C30.1003 21.7287 30.2481 21.5084 30.3491 21.2657C30.45 21.0231 30.5019 20.7628 30.5019 20.5C30.5019 20.2372 30.45 19.977 30.3491 19.7343C30.2481 19.4916 30.1003 19.2713 29.9139 19.086L21.4279 10.6C21.0507 10.2357 20.5455 10.0341 20.0211 10.0387C19.4967 10.0432 18.9951 10.2536 18.6242 10.6244C18.2534 10.9952 18.0431 11.4968 18.0385 12.0212C18.034 12.5456 18.2356 13.0508 18.5999 13.428L23.6719 18.5H12.4999C11.9694 18.5 11.4607 18.7107 11.0857 19.0858C10.7106 19.4609 10.4999 19.9696 10.4999 20.5C10.4999 21.0305 10.7106 21.5392 11.0857 21.9142C11.4607 22.2893 11.9694 22.5 12.4999 22.5H23.6719L18.5999 27.572C18.2356 27.9492 18.034 28.4544 18.0385 28.9788C18.0431 29.5032 18.2534 30.0048 18.6242 30.3757C18.9951 30.7465 19.4967 30.9568 20.0211 30.9614C20.5455 30.9659 21.0507 30.7643 21.4279 30.4L29.9139 21.914ZM20.4999 40.5C9.45388 40.5 0.499878 31.546 0.499878 20.5C0.499878 9.45402 9.45388 0.500015 20.4999 0.500015C31.5459 0.500015 40.4999 9.45402 40.4999 20.5C40.4999 31.546 31.5459 40.5 20.4999 40.5Z" fill="#F2F2F2"/>
</svg>
