<svg width="23" height="16" viewBox="0 0 23 16" fill="none" xmlns="http://www.w3.org/2000/svg">
<path d="M11.5 0.196777C6.5 0.196777 2.23 3.30678 0.5 7.69678C2.23 12.0868 6.5 15.1968 11.5 15.1968C16.5 15.1968 20.77 12.0868 22.5 7.69678C20.77 3.30678 16.5 0.196777 11.5 0.196777ZM11.5 12.6968C8.74 12.6968 6.5 10.4568 6.5 7.69678C6.5 4.93678 8.74 2.69678 11.5 2.69678C14.26 2.69678 16.5 4.93678 16.5 7.69678C16.5 10.4568 14.26 12.6968 11.5 12.6968ZM11.5 4.69678C9.84 4.69678 8.5 6.03678 8.5 7.69678C8.5 9.35678 9.84 10.6968 11.5 10.6968C13.16 10.6968 14.5 9.35678 14.5 7.69678C14.5 6.03678 13.16 4.69678 11.5 4.69678Z" fill="white"/>
</svg>
