<svg width="162" height="64" viewBox="0 0 162 64" fill="none" xmlns="http://www.w3.org/2000/svg">
<g clip-path="url(#clip0)">
<path d="M97.2891 41.4222C97.7342 40.0889 98.3572 38.8445 99.4254 37.7778C99.9594 37.1556 100.137 36.8 99.0693 36.9778C98.9803 36.9778 98.8913 36.9778 98.7133 37.0667C94.7078 37.9556 91.8594 38.3111 90.9693 42.5778C89.6342 49.0667 93.7287 56.7111 87.7649 62.0445C87.4979 62.2222 88.299 62.1333 88.8331 61.9556C89.0111 61.9556 89.1891 61.9556 89.3671 61.8667C98.3572 59.2 96.31 52.2667 96.488 45.7778C97.3781 43.1111 100.404 39.5556 103.342 38.3111C107.258 45.6 100.85 52.0889 102.541 59.4667C102.897 60.9778 103.609 61.7778 104.588 62.0445C104.588 62.0445 104.588 62.0445 104.677 62.0445C104.766 62.0445 104.855 62.0445 104.944 62.1333C106.368 62.4889 108.237 62.1334 109.751 61.6C111.353 60.9778 111.62 60.3556 111.086 60C111.086 60 111.086 60 111.086 59.9111C106.19 55.6445 111.264 47.6445 111.086 42.3111C110.997 39.8222 109.395 36.5333 106.368 36.5333H106.279C102.986 36.4445 99.6034 38.5778 97.2891 41.4222ZM78.4188 44.4445C78.9528 41.9556 82.8693 37.0667 85.8957 40C85.9847 40.1778 86.0737 40.2667 86.2517 40.4445C86.8748 41.7778 86.3407 43.0222 84.2935 44.8C82.6913 46.1333 79.3089 47.8222 77.9737 48.4445C77.8847 47.0222 78.0627 45.7778 78.4188 44.4445ZM73.7012 39.6445C69.8737 43.9111 69.8737 51.1111 72.6331 55.9111C76.1045 61.6889 83.4924 60.5333 87.9429 56.9778C88.566 56.4445 86.6078 56.2667 86.1627 56.6222C85.7177 56.9778 85.3616 57.2445 84.9166 57.5111C84.9166 57.5111 84.8276 57.5111 84.8276 57.6C84.7386 57.6889 84.6495 57.6889 84.5605 57.7778C83.3144 58.6667 82.0682 57.9556 81.1781 57.1556C81.0891 57.0667 81.0891 57.0667 81.0001 56.9778C80.9111 56.9778 80.9111 56.8889 80.9111 56.8C79.2199 54.9333 78.3298 52.7111 77.9737 50.2222C81.8902 47.8222 92.7495 42.7556 87.4979 37.0667C86.4298 35.9111 84.9166 35.4667 83.3144 35.4667C79.8429 35.3778 75.5704 37.6 73.7012 39.6445ZM54.2078 43.4667C54.2968 43.3778 54.2968 43.3778 54.3858 43.2889C54.2968 43.3778 54.2968 43.4667 54.2078 43.4667ZM46.1968 34.9333C44.8616 35.0222 36.7616 35.9111 35.5155 41.6889C34.6254 44.0889 35.0704 47.9111 34.8924 50.2222C34.4473 54.5778 33.0232 59.0222 28.9287 61.3333C28.7506 61.4222 28.5726 61.5111 28.4836 61.6C28.3946 61.6889 28.3946 61.6889 28.3946 61.6889C28.1276 62.1333 28.7506 62.1333 31.1539 61.8667C35.8715 61.1556 39.788 59.1111 42.1913 54.8445C44.1495 51.3778 43.3484 47.4667 43.4375 43.7333C43.5265 42.3111 45.4847 40.2667 47.3539 38.9333C45.7517 41.6889 46.0188 45.4222 49.9353 45.7778C52.0715 45.9556 53.4067 44.8889 54.2078 43.4667C54.2968 43.3778 54.3858 43.2889 54.4748 43.2C54.6528 43.0222 54.8309 42.7556 55.0089 42.5778C55.0979 42.4 55.2759 42.3111 55.3649 42.1333C56.6111 40.8889 57.7682 40.4445 58.7473 41.2445C61.8627 43.8222 57.8572 55.1111 58.0353 57.8667C58.1243 59.1111 58.8363 60 59.8155 60.4445C59.9045 60.4445 59.9935 60.5333 60.0825 60.5333C60.1715 60.6222 60.3495 60.6222 60.4385 60.7111C60.5276 60.7111 60.5276 60.7111 60.6166 60.8C63.3759 61.6889 68.3605 61.6889 71.921 60.1778C72.9891 59.6445 73.2561 59.2 72.188 59.0222C72.099 59.0222 72.01 58.9333 71.921 58.9333C64.8001 58.9333 66.9363 52.5333 68.0045 47.9111C68.8056 44.4445 68.7166 41.2445 66.0462 38.7556C62.6638 35.5556 58.2133 38.1333 55.0089 40.9778C55.0979 40.6222 55.0979 40.2667 55.0979 39.9111C55.3649 32.1778 49.1342 35.6445 44.0605 39.8222C44.3276 39.0222 45.3957 36.9778 46.8199 35.9111C47.532 35.3778 46.9979 35.0222 46.3748 35.0222C46.2858 34.9333 46.2858 34.9333 46.1968 34.9333ZM152.031 35.0222C147.491 36.2667 140.726 44.4445 146.423 48.3556C147.936 49.4222 149.628 50.2222 151.319 51.0222C153.01 52 156.392 54.5778 156.214 56.5333V56.6222C156.214 56.8889 156.125 57.1556 155.947 57.3333C155.947 57.3333 155.947 57.4222 155.858 57.4222C154.79 58.4889 152.031 58.6667 150.963 58.4889C149.628 58.3111 149.361 57.9556 149.004 57.4222C147.936 55.5556 150.963 53.4222 148.025 51.7333C146.512 50.8445 144.732 52.1778 143.842 53.1556C142.952 54.1333 142.685 54.9333 142.774 55.7333C142.774 55.7333 142.774 55.7333 142.774 55.8222C142.774 55.8222 142.774 55.8222 142.774 55.9111C143.13 57.4222 144.999 60.4445 152.209 60.4445C158.262 60.4445 160.754 57.3333 161.466 54.1333V54.0445C161.466 53.8667 161.555 53.6 161.555 53.4222C161.555 53.3333 161.555 53.2445 161.555 53.2445C161.555 53.0667 161.555 52.8889 161.644 52.6222C161.644 52.5333 161.644 52.4445 161.644 52.3556C161.644 52.2667 161.644 52.2667 161.644 52.1778C161.644 52.0889 161.644 52 161.644 51.9111C161.644 51.4667 161.644 51.1111 161.555 50.6667C160.754 44.1778 152.476 44.0889 150.073 38.8445V38.7556C149.984 38.6667 149.984 38.4889 149.895 38.3111C149.806 37.7778 149.984 37.5111 150.251 37.3333C150.429 37.2445 150.607 37.0667 150.874 36.9778C150.874 36.9778 150.874 36.9778 150.963 36.9778C151.497 36.7111 152.12 36.5333 152.654 36.4445C152.654 36.4445 151.141 39.3778 153.544 40.7111C155.947 42.0445 158.351 42.0445 159.508 40.4445C161.822 37.3333 156.214 34.9333 153.099 34.9333C152.654 34.9333 152.387 34.9333 152.031 35.0222ZM63.91 28.3556C63.821 28.4445 63.732 28.5333 63.6429 28.5333C62.6638 29.4222 61.9517 30.4889 61.5957 32C61.0616 34.4 62.8418 36.3556 65.1561 36.4445C69.0726 36.5333 72.277 31.2889 69.6957 28.0889L69.6067 28C69.6067 28 69.6067 27.9111 69.5177 27.9111C69.5177 27.9111 69.5177 27.9111 69.4287 27.8222C68.8056 27.2 68.0935 27.0222 67.3814 27.0222C66.2243 26.9333 64.8891 27.5556 63.91 28.3556ZM123.013 58.1333C120.343 56.2667 119.275 53.0667 118.83 49.6C118.474 46.8445 118.741 40.4445 121.678 38.1333C122.568 37.5111 123.369 37.3333 124.259 37.7778C124.615 38.0445 124.972 38.3111 125.328 38.5778C125.506 38.7556 125.773 39.0222 125.951 39.2C124.883 45.5111 124.794 52.1778 127.731 56.2667C127.642 56.3556 127.642 56.3556 127.553 56.4445C127.464 56.7111 127.286 56.9778 127.197 57.2445C127.108 57.3333 127.108 57.4222 127.019 57.5111C126.485 58.3111 125.773 58.5778 125.061 58.5778C124.259 58.7556 123.547 58.4889 123.013 58.1333ZM129.867 25.6889C128.71 28.5333 127.286 32.8 126.307 37.5111C124.526 36.3556 122.123 36.1778 119.809 36.5333C115.002 37.4222 112.955 41.7778 112.51 46.2222C111.976 51.2 113.845 60.3556 119.72 61.3333C122.835 61.8667 126.752 60.0889 128.71 57.5111C129.867 58.6667 131.291 59.6445 133.161 60.0889C133.25 60.0889 133.339 60.1778 133.428 60.1778C133.517 60.1778 133.517 60.1778 133.606 60.1778C134.852 60.3556 136.721 60.4445 135.831 59.8222C134.763 59.1111 133.695 58.4889 133.161 54.4889C132.626 50.5778 131.914 46.6667 131.914 42.5778C132.003 36.8 132.715 30.6667 134.852 25.2445C135.03 24.9778 135.03 24.8889 134.585 24.8889C133.962 24.8889 132.983 24.6222 131.736 24.2667C131.469 24.1778 131.291 24.1778 131.113 24.1778C130.401 24.2667 130.223 24.8 129.867 25.6889ZM1.06822 26.4889C-1.5131 29.5111 0.356134 35.5556 4.36163 36.2667C9.34624 37.1556 13.4407 33.9556 13.7968 28.8C13.8858 27.6445 11.6605 28 11.5715 28.9778C11.3045 34.2222 2.22536 34.8445 2.22536 29.3333C2.13635 22.6667 12.7287 23.5556 16.2891 24.0889C19.2265 24.5333 22.0748 25.4222 24.9232 26.2222C21.9858 28.4445 19.7605 31.2889 18.3364 35.2C14.6869 45.0667 15.488 55.9111 4.89569 61.6C4.27262 61.9556 4.18361 62.4 4.45064 62.7556C4.53965 62.8445 4.62866 62.9333 4.71767 63.0222C5.34075 63.3778 6.49789 63.6445 8.27811 63.7333C8.27811 63.7333 8.27811 63.7333 8.36712 63.7333C8.45613 63.7333 8.54514 63.7333 8.54514 63.7333C8.63415 63.7333 8.72317 63.7333 8.81218 63.7333C13.0847 63.5556 17.8023 59.8222 19.7605 56.7111C22.3418 52.7111 23.321 47.5556 24.4781 42.8445C25.5462 43.2 26.6144 43.8222 27.7715 43.7333C30.7089 43.6445 32.5781 42.0445 34.5364 40C35.5155 39.0222 33.3792 38.7556 32.7561 39.3778C31.332 40.8 29.9078 42.5778 27.4155 41.9556C26.6144 41.7778 25.8133 41.2445 24.9232 41.1556C25.0122 40.8889 25.0122 40.6222 25.1012 40.3556C26.2583 36.1778 27.9495 31.5556 30.3528 27.6445C37.3847 29.1556 43.8825 29.5111 50.6473 26.7556C51.9825 26.2222 50.8254 25.0667 49.6682 25.5111C43.4375 28.0889 37.4737 27.4667 31.421 26.1333C32.1331 25.1556 32.9342 24.1778 33.7353 23.2889C33.7353 23.2889 33.7353 23.2 33.8243 23.2C34.6254 22.4 32.6671 22.6667 31.777 22.6667C31.599 22.6667 31.421 22.6667 31.2429 22.7556C29.6407 23.3778 28.1276 24.1778 26.7034 24.9778C24.1221 24.2667 21.4517 23.5556 18.7814 23.0222C16.5561 22.5778 14.2418 22.2222 11.9276 22.2222C7.92207 22.1333 3.82756 23.2 1.06822 26.4889Z" fill="white"/>
<path d="M151.052 25.7777C150.785 25.8666 150.251 25.9555 150.073 26.2222L149.984 26.3999C149.806 26.6666 150.607 26.5777 150.696 26.4888C150.963 26.3999 151.497 26.3111 151.675 26.0444L151.764 25.8666C151.853 25.7777 151.675 25.6888 151.497 25.6888C151.23 25.7777 151.052 25.7777 151.052 25.7777ZM148.47 24.5333V24.7111C148.47 24.9777 150.162 24.7111 150.162 24.2666V24.0888C150.162 23.9999 150.073 23.9999 149.806 23.9999C149.361 23.9999 148.47 24.2666 148.47 24.5333ZM143.575 24.0888C143.308 24.3555 143.397 24.7111 143.753 24.7111C144.02 24.7999 144.376 24.7999 144.643 24.7999C144.999 24.7999 145.533 24.7111 145.8 24.3555C145.978 23.9999 145.622 23.8222 145.355 23.8222C145.177 23.8222 144.999 23.8222 144.821 23.7333C144.732 23.7333 144.643 23.7333 144.554 23.7333C144.198 23.7333 143.842 23.9111 143.575 24.0888ZM152.654 23.3777C152.298 23.3777 151.853 23.6444 151.675 23.9999C151.675 24.0888 151.586 24.1777 151.586 24.2666C151.408 24.7111 152.12 24.7111 152.387 24.7111C152.743 24.7111 153.188 24.4444 153.366 24.0888C153.366 23.9999 153.455 23.9111 153.455 23.8222C153.544 23.4666 153.01 23.3777 152.654 23.3777ZM143.664 22.5777V22.6666C143.664 22.9333 145.355 22.7555 145.355 22.2222V22.1333C145.355 22.0444 145.177 22.0444 144.999 22.0444C144.465 21.9555 143.664 22.2222 143.664 22.5777ZM146.512 22.2222C146.245 22.3999 146.067 22.7555 146.423 23.0222C146.601 23.1111 146.69 23.2888 146.779 23.3777C147.224 23.9111 148.915 23.1999 148.381 22.6666C148.203 22.4888 148.025 22.2222 147.758 22.1333C147.669 22.0444 147.491 22.0444 147.313 22.0444C146.957 21.9555 146.69 22.0444 146.512 22.2222ZM148.737 21.4222C148.737 21.5111 148.737 21.5111 148.737 21.4222C148.47 21.7777 148.559 22.1333 149.004 22.3111C149.45 22.4888 149.895 22.3111 150.251 21.9555C150.429 21.7777 150.518 21.5111 150.518 21.2444C150.518 20.7999 150.251 20.6222 149.806 20.6222C149.361 20.7111 148.826 20.9777 148.737 21.4222ZM138.501 21.5111V21.5999C138.501 22.5777 140.281 22.3111 140.281 21.5111C140.281 21.3333 140.281 21.1555 140.192 21.0666C140.103 20.7999 139.836 20.6222 139.48 20.6222C138.946 20.6222 138.323 20.9777 138.501 21.5111ZM151.942 21.1555C152.654 21.1555 153.722 20.0888 152.565 20.0888C151.853 19.9999 150.785 21.1555 151.942 21.1555ZM143.842 20.2666C143.842 20.5333 145.533 20.3555 145.533 19.8222V19.7333C145.533 19.6444 145.444 19.6444 145.177 19.6444C144.732 19.7333 143.842 19.9111 143.842 20.2666ZM141.706 20.1777C141.528 20.4444 141.706 20.7111 141.973 20.7999C142.418 21.5111 144.02 20.7999 143.575 19.9999C143.397 19.7333 143.219 19.6444 142.863 19.5555C142.774 19.5555 142.774 19.5555 142.685 19.5555C142.329 19.6444 141.884 19.9111 141.706 20.1777ZM147.58 20.4444C148.559 20.4444 148.915 19.1999 147.758 19.1999C146.779 19.1999 146.423 20.4444 147.58 20.4444ZM144.732 19.0222C145.533 19.0222 146.512 17.8666 145.355 17.8666C144.554 17.7777 143.575 19.0222 144.732 19.0222ZM139.925 33.6888C137.967 32.5333 132.181 28.6222 135.92 26.4888C136.009 26.4888 136.009 26.3999 136.009 26.3999C136.098 26.3999 136.187 26.3999 136.276 26.3999C136.543 26.8444 136.899 27.2888 137.255 27.6444C137.255 27.9111 137.344 28.1777 137.789 28.5333C138.59 29.3333 138.145 28.6222 139.124 29.2444L139.213 29.3333C139.213 29.3333 139.302 29.3333 139.302 29.4222C139.925 29.8666 138.412 29.5999 139.569 30.1333C140.726 30.7555 140.994 31.5555 142.24 31.5555C143.486 31.5555 142.952 31.8222 144.198 31.9111C145.444 31.9999 145.444 32.5333 146.245 32.5333C146.69 32.5333 146.957 32.4444 147.224 32.3555C147.313 32.3555 147.491 32.3555 147.58 32.4444L147.669 32.5333C148.025 32.8888 148.47 32.8888 149.004 32.8888C149.539 32.8888 149.628 32.5333 150.34 32.5333C151.052 32.5333 150.518 33.5111 151.497 32.5333C151.853 32.1777 152.031 31.9111 152.12 31.7333C152.209 31.7333 152.298 31.6444 152.298 31.6444C152.298 34.2222 148.203 35.8222 146.245 35.9111C146.156 35.9111 146.067 35.9111 145.978 35.9111C143.931 35.7333 141.706 34.7555 139.925 33.6888ZM145.622 29.8666C141.795 28.3555 137.7 27.0222 135.831 23.1111C135.653 22.6666 137.255 22.1333 137.522 22.6666C139.302 26.3999 148.737 31.9999 152.387 28.6222C152.743 28.2666 154.434 28.1777 153.722 28.8888C152.298 30.2222 150.874 30.8444 149.361 30.8444C148.203 30.7555 146.957 30.3999 145.622 29.8666ZM142.774 25.2444C141.083 24.5333 139.836 24.2666 139.124 23.6444C138.679 23.1999 137.7 22.2222 137.077 21.8666C136.899 20.1777 139.569 18.4888 141.35 17.9555C144.02 17.2444 147.135 17.4222 149.717 18.2222C152.654 19.0222 156.036 21.7777 154.701 25.1555C153.188 28.9777 146.957 26.9333 144.376 25.8666C144.198 25.7777 143.931 25.7777 143.753 25.7777C143.575 25.6888 143.308 25.5111 142.774 25.2444ZM139.569 17.5999C136.81 18.3111 135.564 20.5333 136.454 22.3999C136.365 22.4888 136.098 22.4888 135.831 22.4888C135.297 22.4888 134.585 22.9333 135.03 23.3777C135.475 23.8222 135.92 24.0888 135.297 24.2666C134.674 24.4444 134.229 24.3555 134.496 24.8888C134.763 25.5111 133.606 25.5111 134.674 26.0444C130.579 28.7111 137.077 33.1555 139.48 34.5777C141.884 35.9999 145.177 37.2444 148.025 36.6222C150.251 36.0888 153.722 34.0444 153.277 31.3777C153.366 31.3777 153.544 31.3777 153.633 31.3777C154.256 31.3777 154.612 30.9333 154.79 30.7555C154.968 30.5777 155.502 30.3111 155.324 29.6888C155.146 29.0666 155.413 28.9777 155.413 28.6222C155.413 28.5333 155.324 28.5333 155.235 28.5333C155.057 28.5333 154.879 28.6222 154.879 28.0888C154.879 27.2888 155.68 26.9333 154.701 26.9333C154.79 26.8444 154.879 26.8444 154.879 26.7555C158.44 23.9999 154.078 19.8222 151.586 18.4888C149.539 17.4222 147.135 16.9777 144.821 16.9777C143.041 16.8888 141.261 17.1555 139.569 17.5999Z" fill="white"/>
<path d="M154.523 9.51103C153.9 10.1333 153.366 10.7555 153.366 11.6444C153.366 12.1777 153.722 12.6221 153.9 12.9777C154.256 13.6888 153.455 14.3999 153.01 14.7555C152.832 14.9333 153.811 14.8444 153.989 14.6666C154.612 14.2221 155.146 13.511 154.968 12.711C154.879 12.2666 154.523 11.911 154.434 11.3777C154.345 10.6666 155.057 9.86658 155.502 9.42214C155.591 9.33325 155.502 9.33325 155.324 9.33325C155.057 9.24436 154.612 9.33325 154.523 9.51103ZM137.522 6.48881C137.522 7.64436 138.056 8.26659 138.768 9.06659C139.747 10.1333 140.014 10.9333 139.747 12.3555C139.658 12.7999 140.637 12.3555 140.637 12.0888C140.815 11.111 140.904 10.3999 140.459 9.51103C139.836 8.1777 138.501 7.64436 138.501 6.04436C138.501 5.95547 138.412 5.95547 138.323 5.95547C138.056 5.95547 137.522 6.22214 137.522 6.48881ZM149.805 4.1777C149.449 5.15547 149.716 5.95547 150.162 6.84436C151.052 8.62214 150.785 10.0444 149.449 11.4666C149.004 11.911 150.073 11.9999 150.34 11.7333C151.141 10.8444 151.675 9.95548 151.853 8.79992C152.12 7.19992 150.251 5.86658 150.874 4.26658C150.963 3.99992 150.785 3.91103 150.518 3.91103C150.162 3.82214 149.895 3.99992 149.805 4.1777ZM143.397 0.444362C142.685 1.68881 142.685 2.66658 143.219 3.99992C144.198 6.48881 145.711 7.64436 144.376 10.4888C144.109 11.0221 145.177 11.0221 145.355 10.5777C145.978 9.15548 146.245 8.08881 145.711 6.5777C144.999 4.44436 142.952 3.02214 144.287 0.53325C144.465 0.266583 144.198 0.177696 143.931 0.177696C143.753 0.0888071 143.486 0.266584 143.397 0.444362Z" fill="white"/>
</g>
<defs>
<clipPath id="clip0">
<rect width="162" height="64" fill="white"/>
</clipPath>
</defs>
</svg>
