<svg xmlns="http://www.w3.org/2000/svg" xmlns:xlink="http://www.w3.org/1999/xlink" viewBox="0 0 196.14 89.49">
  <defs>
    <clipPath id="a" transform="translate(-182.22 -99.68)">
      <path d="M360,110.2a3.77,3.77,0,0,0-1.31,2.39c0,.55.39,1.06.61,1.53.36.76-.5,1.62-1,2-.23.17.85,0,1.07-.11a2.32,2.32,0,0,0,1.14-2.23c-.11-.54-.53-1-.62-1.53-.12-.83.7-1.65,1.2-2.19.08-.08,0-.12-.17-.12A1.72,1.72,0,0,0,360,110.2Zm-19.1-3.33a4.08,4.08,0,0,0,1.39,2.93,3.75,3.75,0,0,1,1.06,3.7c-.11.54,1,0,1-.34a4.2,4.2,0,0,0-.21-2.92c-.73-1.47-2.24-2-2.21-3.9,0-.1-.07-.15-.17-.15C341.51,106.19,340.91,106.56,340.9,106.87Zm13.78-2.66a3.4,3.4,0,0,0,.41,3,4.16,4.16,0,0,1-.83,5.2c-.5.53.66.6,1,.26a5.93,5.93,0,0,0,1.71-3.3c.25-1.84-1.85-3.29-1.14-5.11.11-.3-.12-.42-.41-.42A.78.78,0,0,0,354.68,104.21Zm-6.47-4.53h0a.93.93,0,0,0-.73.32,4,4,0,0,0-.21,4c1.14,2.77,2.76,4.13,1.32,7.28-.28.62.92.6,1.13.13a5.48,5.48,0,0,0,.45-4.52c-.8-2.42-3.12-4-1.55-6.76C348.77,99.83,348.53,99.69,348.21,99.68Z" style="fill: none;clip-rule: evenodd"/>
    </clipPath>
    <linearGradient id="b" x1="327.93" y1="298.55" x2="328.93" y2="298.55" gradientTransform="translate(6208.29 -5452.88) rotate(90) scale(16.63 20.23)" gradientUnits="userSpaceOnUse">
      <stop offset="0" stop-color="#fff"/>
      <stop offset="1" stop-color="#fff"/>
    </linearGradient>
    <clipPath id="c" transform="translate(-182.22 -99.68)">
      <path d="M347.46,100a4,4,0,0,0-.21,4c1.14,2.77,2.76,4.13,1.32,7.28-.28.62.92.6,1.13.13a5.48,5.48,0,0,0,.45-4.52c-.8-2.42-3.12-4-1.55-6.76.18-.3-.08-.45-.4-.45A.89.89,0,0,0,347.46,100Z" style="fill: none;clip-rule: evenodd"/>
    </clipPath>
    <linearGradient id="d" x1="329.72" y1="343.37" x2="330.7" y2="343.37" gradientTransform="translate(1438.81 -4026.99) rotate(90) scale(12.21 3.71)" xlink:href="#b"/>
    <clipPath id="e" transform="translate(-182.22 -99.68)">
      <path d="M272,147c.61-2.79,5-8.28,8.36-5a5.92,5.92,0,0,1,.35.48c.75,1.46.12,2.93-2.16,4.86a39.31,39.31,0,0,1-7.08,4.09A18,18,0,0,1,272,147Zm-5.24-5.41c-4.33,4.8-4.32,12.95-1.15,18.29,3.86,6.52,12.16,5.22,17.23,1.19.73-.57-1.49-.79-2-.36s-.94.7-1.4,1l-.08.05-.25.17c-1.4,1-2.82.21-3.85-.74L275,161l-.15-.16a12.88,12.88,0,0,1-3.25-7.35c4.39-2.66,16.59-8.42,10.67-14.85a6.16,6.16,0,0,0-4.69-1.8A16.81,16.81,0,0,0,266.76,141.55Z" style="fill: none;clip-rule: evenodd"/>
    </clipPath>
    <linearGradient id="f" x1="325.85" y1="297.12" x2="326.73" y2="297.12" gradientTransform="translate(7002.16 -9546.99) rotate(90) scale(29.41 23.25)" xlink:href="#b"/>
    <clipPath id="g" transform="translate(-182.22 -99.68)">
      <path d="M215.11,153.42c.34-2.22.59-4.47.84-6.64v0c.23-1.95.44-3.45.44-3.45h0l0-.18a60.88,60.88,0,0,1,2.94-11.85c4.07-.67,5.51,5,6,8.44a20.5,20.5,0,0,1-.74,9.4,5.9,5.9,0,0,1-3.46,3.81,13.7,13.7,0,0,1-4.09.62A14.26,14.26,0,0,1,215.11,153.42Zm-11.52-20.79q.1-.21.21-.39l.07-.12a4,4,0,0,1,1.81-1.55,10.66,10.66,0,0,1,2.06-.48,5.8,5.8,0,0,1,3,.37,24.19,24.19,0,0,0-3.24,7.58,100.69,100.69,0,0,0-1.78,11.23C200.61,149,201.08,137.55,203.59,132.63Zm23.52-13.4h0a22.08,22.08,0,0,0-11.66,5.69h0a21.13,21.13,0,0,0-3.89,4.39,12.29,12.29,0,0,0-5.35.34,14.11,14.11,0,0,0-9.05,7.21c-2.76,5-2.69,12.4,2.52,15.66a6.35,6.35,0,0,0,5.53.52c-1,6.49-2.88,12.52-8.78,17.24-2.18,1.68-2.93.89-3.9-.28a7.14,7.14,0,0,1-.4-.71c-.33-.71-.27-4.3,1.39-3,.51.39,2.36-.59,1.85-1a3,3,0,0,0-3.84.09c-1.85,1.3-1.94,3.57-1.07,5.42a3.85,3.85,0,0,0,1.44,1.58h0l.31.17c.09,0,.16.1.25.14,2.79,1.42,7.86,1.94,13-1.73h0a21.46,21.46,0,0,0,6.87-7.64,31.88,31.88,0,0,0,2.52-8.33,14.72,14.72,0,0,0,10.81-2.65c4.23-3.16,10.17-8.72,8.84-14.6-1.15-5-4.41-10.38-10.34-10.43a17.42,17.42,0,0,0-3.28.31c.5-1,1.16-2.22,1.6-3a7.88,7.88,0,0,1,6.13-4.39l1-.07h.05a10.62,10.62,0,0,1,7.19,2.17c4.92,3.93-3.6,7.64-3.25,1.82.05-.74-2-.13-2,.53-.54,8.73,16.73,1.37,5-4.73a11.83,11.83,0,0,0-5.42-1.15A21.64,21.64,0,0,0,227.11,119.23Z" style="fill: none;clip-rule: evenodd"/>
    </clipPath>
    <linearGradient id="h" x1="319.81" y1="289.39" x2="320.57" y2="289.39" gradientTransform="translate(-20322.49 -18148.31) scale(64.13 63.22)" xlink:href="#b"/>
    <clipPath id="i" transform="translate(-182.22 -99.68)">
      <path d="M245.07,162.49a7.51,7.51,0,0,1-2.16-2.55,73.83,73.83,0,0,0,2.74-13.71,16.39,16.39,0,0,0-.16-4.15c2.76-1.79,6.71-2.43,8.1,1.25a19.2,19.2,0,0,1,.73,5.89,25.43,25.43,0,0,1-1.83,11s0,0,0,0c-.1.23-.23.44-.34.66a6.2,6.2,0,0,1-7.06,1.53Zm-8.95-26.66h0l-.13,0-.15,0c-1.73.27-3.1.71-3.33,1.07s-.2.51.3.53H233c8.32-.58,5.05,8.91,3.92,13.64-1.38,5.76-4.11,12-4.35,17.93-.14,3.54.86,8.2,4.59,9.61a3.43,3.43,0,0,0,1.24.2h0c1.62,0,6-1.15,5.66-2.24h0s0,0,0,0c-.07-.2-.16-.2-.35-.2a2,2,0,0,1-.8-.12,2.7,2.7,0,0,1-1.64-1.44c-1.66-4-.11-8.86,1.14-13.08,1.93,2,4.42,2.75,8,1.9A13.84,13.84,0,0,0,260.8,153c1.19-5.65,1.51-13-4.68-15.55-3.79-1.56-8,.51-11,3-1.07-3.06-3.48-4.75-7.1-4.75A13.61,13.61,0,0,0,236.12,135.83Z" style="fill: none;clip-rule: evenodd"/>
    </clipPath>
    <linearGradient id="j" x1="316.27" y1="290.41" x2="317.23" y2="290.41" gradientTransform="matrix(0, 30.08, -43.29, 0, 12819.01, -9370.17)" xlink:href="#b"/>
    <clipPath id="k" transform="translate(-182.22 -99.68)">
      <path d="M301.89,141.61c-.94,2.54-.4,5.71.19,8.95a11.82,11.82,0,0,1-2.58-.06c-1.89-.25-3.2-1.59-5-2l-.18,0c.2-3.4.4-7.71,2.24-10.38a1,1,0,0,0,.07-.15h0c.12-.46-.71-.71-3.54.26l-.22.07-.21.07-.37.15a7.22,7.22,0,0,0-4.46,6.37c-.61,6.4-.51,15.23-7.11,19.42-.73.39-1.7.81-1.74,1s.22.5,2.62.35h0l.53,0a13,13,0,0,0,9.54-6.24c1.78-2.75,2.25-6.21,2.5-9.28,1.78.56,3.45,1.59,5.6,1.66a18.19,18.19,0,0,0,2.47-.11c.59,3.33,1,6.66-.17,9.39a6.46,6.46,0,0,1-3.36,3.31c-1.49.75-1.38,1.2-.54,1.38h0l.2.05c5,.44,7.35-1,9.26-5.09,2.95-6.25.28-13.11,1.75-19.53.39-1.45,1-1.5,1.35-1.64s.55-.38.11-.9h0l0-.06a4.16,4.16,0,0,0-3.12-1.46C305.23,137.12,302.69,139.42,301.89,141.61Z" style="fill: none;clip-rule: evenodd"/>
    </clipPath>
    <linearGradient id="l" x1="317.63" y1="291.74" x2="318.45" y2="291.74" gradientTransform="matrix(0, 35.3, -32.46, 0, 9766.08, -11075.84)" xlink:href="#b"/>
    <clipPath id="m" transform="translate(-182.22 -99.68)">
      <path d="M320.47,160.45a23.75,23.75,0,0,1-1.87-6.12.25.25,0,0,1,0-.08c0-.26-.07-.51-.11-.76-.44-3.91-.23-13.06,8.38-11.9a16.86,16.86,0,0,0-.41,3.88,29.55,29.55,0,0,0,1.68,8.7h0l.09.32c.06.16.11.33.16.49a5.53,5.53,0,0,1-.39,4.91,9,9,0,0,1-3.39,3l0-.11v.13l-.22.1a2.73,2.73,0,0,1-1,.25C322.54,163.24,321.57,162.69,320.47,160.45ZM327.84,139h0a8.3,8.3,0,0,0-3.74-1.26h0c-.19,0-.37-.05-.57-.06h-.23a9.6,9.6,0,0,0-8.75,5.41l0,.06a23.11,23.11,0,0,0-3,9.21c-.48,5.19,2.58,10.93,7.35,12.73s8.56-1.38,10.92-5.15c.11.48.22,1,.3,1.44a41.08,41.08,0,0,1,.58,9.71,12.18,12.18,0,0,1-4.08,7.63l-.17.12a5.74,5.74,0,0,1-.5.36l-.1.06a5.12,5.12,0,0,1-.52.27,1.76,1.76,0,0,1-.2.09l-.06,0a3,3,0,0,1-3.66-1.29,6.11,6.11,0,0,1-.85-1.84c-1.15-4.1,5.62-8.46,8.31-9.67,1.13-.52.47-1.78-.65-1.27-4.58,2.07-10.81,7-9.18,12.8,1.39,5,8.07,4.87,11.64,3.3,5.36-2.37,5.63-10.35,5.8-15.36a97.64,97.64,0,0,0-1-14.89,49.09,49.09,0,0,1-.51-8.66c0-.36.05-.71.09-1h0a11.75,11.75,0,0,1,1.71-4.86c.65-1,1.47-1.49-1.28-1.76-.3,0-.59,0-.86,0A7.69,7.69,0,0,0,327.84,139Z" style="fill: none;clip-rule: evenodd"/>
    </clipPath>
    <linearGradient id="n" x1="317.89" y1="289.15" x2="318.59" y2="289.15" gradientTransform="matrix(41.17, 0, 0, 53.82, -12773.52, -15402.71)" xlink:href="#b"/>
    <clipPath id="o" transform="translate(-182.22 -99.68)">
      <path d="M353.74,138.28c-7.39,4-14.16,16.67-4.11,23.88,7.78,5.56,17.2,1.17,22.84-2.27.88-.53-1.21-.72-1.65-.45a28.33,28.33,0,0,1-9.28,4c-5.61.48-8.18-6.6-9-10.49-1.2-5.95.75-10.76,5.54-13.31-1.19,4.21,5.95,8.83,8.24,4.88a5.35,5.35,0,0,0-3.38-7.78,12.06,12.06,0,0,0-2.91-.38A12.85,12.85,0,0,0,353.74,138.28Z" style="fill: none;clip-rule: evenodd"/>
    </clipPath>
    <linearGradient id="p" x1="317.99" y1="291.77" x2="318.65" y2="291.77" gradientTransform="matrix(0, 36.16, -35.86, 0, 10818.72, -11356.34)" xlink:href="#b"/>
    <clipPath id="q" transform="translate(-182.22 -99.68)">
      <path d="M353.06,126.54a1.86,1.86,0,0,0-1.14.5l-.11.17c-.18.27.71.15.76.14.34-.06.93-.18,1.14-.5l.11-.17c.1-.14-.1-.18-.32-.18A2.36,2.36,0,0,0,353.06,126.54Zm-2.86-1.36v.17c0,.27,1.93,0,1.93-.52v-.17c0-.07-.15-.11-.36-.11C351.22,124.55,350.2,124.8,350.2,125.18Zm-5.47-.51a.41.41,0,0,0,.2.75,5.71,5.71,0,0,0,1,.14,1.45,1.45,0,0,0,1.27-.54c.25-.39-.2-.62-.53-.63a3.81,3.81,0,0,1-.59-.08,1.53,1.53,0,0,0-.3,0A1.54,1.54,0,0,0,344.73,124.67Zm10.14-.82a1.21,1.21,0,0,0-1.09.71,3.38,3.38,0,0,1-.11.34c-.15.46.6.55.86.52a1.23,1.23,0,0,0,1.08-.71l.12-.35c.13-.4-.46-.52-.77-.52Zm-10.1-.95V123c0,.33,1.94,0,1.94-.52v-.11c0-.1-.17-.14-.41-.14C345.74,122.24,344.77,122.49,344.77,122.9Zm3.2-.41c-.31.21-.53.65-.13.89a2.72,2.72,0,0,1,.43.4c.55.57,2.39-.17,1.78-.81a3.42,3.42,0,0,0-.7-.62,1,1,0,0,0-.51-.13A1.6,1.6,0,0,0,348,122.49Zm2.55-.81s0,0,0,0a.6.6,0,0,0,.26,1,1.3,1.3,0,0,0,1.7-1.14c0-.46-.33-.67-.77-.67S350.57,121.18,350.52,121.68Zm-11.51.07,0,.15c0,1.06,2,.79,2-.13a1.88,1.88,0,0,0-.07-.53.75.75,0,0,0-.79-.5C339.54,120.74,338.84,121.17,339,121.75Zm15.1-.44c.81,0,2-1.23.72-1.23C354,120.08,352.81,121.31,354.11,121.31Zm-9.11-1v.06c0,.27,1.93,0,1.93-.52v-.06c0-.07-.14-.11-.35-.11C346,119.7,345,120,345,120.33Zm-2.36,0a.54.54,0,0,0,.28.74c.5.76,2.31,0,1.76-.87a1.06,1.06,0,0,0-.78-.47l-.19,0A1.23,1.23,0,0,0,342.64,120.28Zm6.6.25c1.1,0,1.5-1.38.18-1.38C348.33,119.15,347.93,120.53,349.24,120.53ZM346,118.9c.87,0,2-1.32.7-1.32C345.79,117.58,344.66,118.9,346,118.9Zm-5.39,16.51c-2.21-1.3-8.72-5.65-4.46-8.06a.4.4,0,0,0,.13-.13l.28,0a12.35,12.35,0,0,0,1.11,1.43,1.75,1.75,0,0,0,.58,1c.85.85.38.13,1.52.84l.11.08.09.06c.67.52-1,.17.25.78s1.57,1.57,3,1.57.81.32,2.23.41,1.39.65,2.32.65a6,6,0,0,0,1.09-.15l.42,0,.12.1a2,2,0,0,0,1.52.36c.6,0,.71-.36,1.47-.36s.17,1.06,1.26,0a4.59,4.59,0,0,0,.74-.86l.25-.13c0,2.86-4.61,4.67-6.83,4.75h-.25A14.55,14.55,0,0,1,340.57,135.41Zm6.43-4.29c-4.26-1.75-8.89-3.2-11-7.65-.25-.52,1.63-1.14,1.93-.51,2,4.21,12.63,10.53,16.67,6.73.42-.41,2.34-.5,1.53.26a6.94,6.94,0,0,1-4.91,2.17A11.39,11.39,0,0,1,347,131.12ZM343.81,126c-1.91-.81-3.32-1.06-4.08-1.82a18.3,18.3,0,0,0-2.34-2c-.2-2,2.78-3.85,4.76-4.35a18.46,18.46,0,0,1,9.45.3c3.27,1,7.09,4,5.63,7.79-1.67,4.26-8.75,2-11.59.75a1.08,1.08,0,0,0-.68,0A7.81,7.81,0,0,0,343.81,126Zm-3.56-8.63c-3.09.79-4.51,3.29-3.49,5.4a1.48,1.48,0,0,1-.68.06c-.56,0-1.39.46-.86,1s1,.76.32,1-1.16,0-.88.7-1,.66.21,1.27h0c-4.62,3,2.75,8,5.4,9.56s6.41,3,9.59,2.29c2.52-.58,6.4-3,5.94-5.91a2.55,2.55,0,0,1,.44,0,1.77,1.77,0,0,0,1.26-.67c.19-.18.85-.52.6-1.18s0-.79,0-1.15c0-.15-.1-.13-.22-.11s-.43,0-.43-.5c0-.92.89-1.27-.24-1.27h0c.08-.06.17-.11.24-.17,4-3.14-.88-7.79-3.74-9.3a16.4,16.4,0,0,0-7.64-1.71A23.33,23.33,0,0,0,340.25,117.34Z" style="fill: none;clip-rule: evenodd"/>
    </clipPath>
    <linearGradient id="r" x1="315.31" y1="292.13" x2="316.13" y2="292.13" gradientTransform="translate(-8089.93 -6606.37) scale(26.14 22.71)" gradientUnits="userSpaceOnUse">
      <stop offset="0" stop-color="#fff"/>
      <stop offset="1" stop-color="#fff"/>
    </linearGradient>
  </defs>
  <title>Untitled-3</title>
  <g>
    <g style="clip-path: url(#a)">
      <rect x="158.67" width="20.27" height="16.63" style="fill: url(#b)"/>
    </g>
    <g style="clip-path: url(#c)">
      <rect x="164.41" width="4.09" height="12.21" style="fill: url(#d)"/>
    </g>
    <g style="clip-path: url(#e)">
      <rect x="80.22" y="37.13" width="25.8" height="29.54" style="fill: url(#f)"/>
    </g>
    <g style="clip-path: url(#g)">
      <rect x="186.14" y="115.14" width="65.66" height="63.16" transform="translate(-199.83 -69.18) rotate(-7.66)" style="fill: url(#h)"/>
    </g>
    <g style="clip-path: url(#i)">
      <rect x="225.66" y="142.18" width="43.25" height="30.18" transform="translate(-92.94 304.4) rotate(-89.83)" style="fill: url(#j)"/>
    </g>
    <g style="clip-path: url(#k)">
      <rect x="278.81" y="133.91" width="32.65" height="35.55" transform="translate(-71.71 327.73) rotate(-83.39)" style="fill: url(#l)"/>
    </g>
    <g style="clip-path: url(#m)">
      <rect x="306.09" y="132.68" width="37.06" height="53.08" transform="translate(-209.21 -24.73) rotate(-12.65)" style="fill: url(#n)"/>
    </g>
    <g style="clip-path: url(#o)">
      <rect x="338.27" y="132.86" width="36.39" height="38.4" transform="translate(-33.57 379.48) rotate(-80.67)" style="fill: url(#p)"/>
    </g>
    <g style="clip-path: url(#q)">
      <rect x="148.03" y="16.9" width="31.28" height="22.72" style="fill: url(#r)"/>
    </g>
    <path d="M347.76,137.78c-2.49.09-5.1-1.14-7.19-2.37s-8.72-5.65-4.46-8.06a.4.4,0,0,0,.13-.13l.28,0a12.6,12.6,0,0,0,1.11,1.43,1.75,1.75,0,0,0,.58,1c.85.85.38.13,1.52.84l.11.08.09.06c.67.52-1,.17.25.78s1.57,1.57,3,1.57.81.32,2.23.41,1.39.65,2.32.65a5.23,5.23,0,0,0,1.09-.15l.42.06a.47.47,0,0,1,.12.09,2,2,0,0,0,1.52.36c.6,0,.71-.36,1.47-.36s.17,1.06,1.26,0a4.59,4.59,0,0,0,.74-.86l.25-.13c0,2.86-4.61,4.67-6.83,4.75" transform="translate(-182.22 -99.68)" style="fill: #fff"/>
  </g>
</svg>
