<svg width="101" height="90" viewBox="0 0 101 90" fill="none" xmlns="http://www.w3.org/2000/svg">
<path d="M90.2977 45.7988C88.0574 49.4133 86.2355 52.9293 87.2193 57.1077C87.8095 59.6148 89.975 61.3099 91.2054 62.7843C93.6661 65.733 90.6873 69.9624 88.9887 72.1263C88.3486 73.159 92.8529 71.6575 93.493 70.6248C95.93 67.846 97.6535 63.9122 95.9313 60.3486C95.021 58.3579 92.9538 57.0806 91.9451 54.672C90.7397 51.4278 93.2017 46.8791 94.8019 44.2973C95.1219 43.781 94.7035 43.8795 93.8667 44.0765C92.513 43.9542 90.5194 44.8646 90.2977 45.7988ZM7.03503 50.4077C8.31391 55.8397 11.513 58.1735 15.7458 61.146C21.5289 65.0766 23.6695 68.5416 23.9883 75.5227C24.0618 77.7104 28.1725 74.5375 27.8773 73.284C27.632 68.4907 27.2635 65.0494 24.1876 61.3636C19.7831 55.7855 12.9165 54.7561 11.1458 47.2349C11.0474 46.817 10.6289 46.9155 10.2105 47.0141C8.95525 47.3096 6.7399 49.1542 7.03503 50.4077ZM62.219 25.9492C61.6274 30.9396 63.768 34.4046 66.8439 38.0905C72.9956 45.4623 73.3143 52.4433 68.6121 60.6065C67.0119 63.1883 72.1313 62.424 73.0914 60.8749C75.8734 55.8099 77.4002 51.0404 76.9581 45.4114C76.4426 37.5947 66.1802 33.3957 67.3383 25.185C67.4616 23.8329 66.5265 23.6121 65.2712 23.9076C63.4991 23.8838 62.4406 25.015 62.219 25.9492ZM27.9611 15.4926C25.991 22.1305 27.0731 26.7268 31.0592 32.4034C38.4164 43.0194 46.8084 46.7767 43.6801 61.6253C43.0151 64.4279 48.0362 63.2458 48.3811 60.9596C49.736 53.5845 49.8108 48.2748 45.6279 41.7626C39.9195 32.5224 28.7219 28.1026 32.2436 14.9253C32.7853 13.4747 31.4317 13.3525 30.1764 13.648C29.2412 13.4272 28.1828 14.5584 27.9611 15.4926Z" fill="url(#paint0_linear)"/>
<defs>
<linearGradient id="paint0_linear" x1="42.3291" y1="10.5509" x2="58.537" y2="79.3926" gradientUnits="userSpaceOnUse">
<stop stop-color="#D20A11"/>
<stop offset="1" stop-color="#B70E0C"/>
</linearGradient>
</defs>
</svg>
